<?xml version="1.0" encoding="UTF-8"?>
<svg xmlns="http://www.w3.org/2000/svg" xmlns:xlink="http://www.w3.org/1999/xlink" width="20px" height="16px" viewBox="0 0 21 16" version="1.1">
<g id="surface1">
<path style=" stroke:none;fill-rule:evenodd;fill:rgb(74.117647%,23.921569%,26.666667%);fill-opacity:1;" d="M 0 0 L 29.925781 0 L 29.925781 1.230469 L 0 1.230469 Z M 0 2.460938 L 29.925781 2.460938 L 29.925781 3.695312 L 0 3.695312 Z M 0 4.921875 L 29.925781 4.921875 L 29.925781 6.15625 L 0 6.15625 Z M 0 7.382812 L 29.925781 7.382812 L 29.925781 8.617188 L 0 8.617188 Z M 0 9.847656 L 29.925781 9.847656 L 29.925781 11.078125 L 0 11.078125 Z M 0 12.304688 L 29.925781 12.304688 L 29.925781 13.539062 L 0 13.539062 Z M 0 14.769531 L 29.925781 14.769531 L 29.925781 16 L 0 16 Z M 0 14.769531 "/>
<path style=" stroke:none;fill-rule:evenodd;fill:rgb(100%,100%,100%);fill-opacity:1;" d="M 0 1.230469 L 29.925781 1.230469 L 29.925781 2.460938 L 0 2.460938 Z M 0 3.695312 L 29.925781 3.695312 L 29.925781 4.921875 L 0 4.921875 Z M 0 6.152344 L 29.925781 6.152344 L 29.925781 7.382812 L 0 7.382812 Z M 0 8.617188 L 29.925781 8.617188 L 29.925781 9.847656 L 0 9.847656 Z M 0 11.078125 L 29.925781 11.078125 L 29.925781 12.308594 L 0 12.308594 Z M 0 13.539062 L 29.925781 13.539062 L 29.925781 14.769531 L 0 14.769531 Z M 0 13.539062 "/>
<path style=" stroke:none;fill-rule:evenodd;fill:rgb(9.803922%,18.431373%,36.470588%);fill-opacity:1;" d="M 0 0 L 11.96875 0 L 11.96875 8.617188 L 0 8.617188 Z M 0 0 "/>
<path style=" stroke:none;fill-rule:evenodd;fill:rgb(100%,100%,100%);fill-opacity:1;" d="M 0.996094 0.367188 L 1.109375 0.710938 L 1.457031 0.710938 L 1.175781 0.917969 L 1.28125 1.261719 L 0.996094 1.050781 L 0.714844 1.257812 L 0.820312 0.917969 L 0.535156 0.710938 L 0.890625 0.710938 Z M 2.992188 0.367188 L 3.101562 0.710938 L 3.453125 0.710938 L 3.167969 0.917969 L 3.277344 1.261719 L 2.992188 1.050781 L 2.707031 1.257812 L 2.816406 0.917969 L 2.53125 0.710938 L 2.882812 0.710938 Z M 4.988281 0.367188 L 5.097656 0.710938 L 5.445312 0.710938 L 5.160156 0.917969 L 5.269531 1.261719 L 4.984375 1.050781 L 4.699219 1.257812 L 4.808594 0.917969 L 4.523438 0.710938 L 4.875 0.710938 Z M 6.984375 0.367188 L 7.089844 0.710938 L 7.445312 0.710938 L 7.160156 0.917969 L 7.269531 1.261719 L 6.984375 1.050781 L 6.695312 1.257812 L 6.808594 0.917969 L 6.519531 0.710938 L 6.871094 0.710938 Z M 8.976562 0.367188 L 9.085938 0.710938 L 9.4375 0.710938 L 9.15625 0.917969 L 9.261719 1.261719 L 8.976562 1.050781 L 8.691406 1.257812 L 8.800781 0.917969 L 8.519531 0.710938 L 8.867188 0.710938 Z M 10.972656 0.367188 L 11.082031 0.710938 L 11.433594 0.710938 L 11.148438 0.917969 L 11.257812 1.261719 L 10.972656 1.050781 L 10.6875 1.257812 L 10.796875 0.917969 L 10.511719 0.710938 L 10.863281 0.710938 Z M 1.996094 1.230469 L 2.105469 1.570312 L 2.457031 1.570312 L 2.171875 1.78125 L 2.277344 2.121094 L 2 1.914062 L 1.714844 2.121094 L 1.816406 1.78125 L 1.539062 1.570312 L 1.890625 1.570312 Z M 3.988281 1.230469 L 4.101562 1.570312 L 4.453125 1.570312 L 4.164062 1.78125 L 4.277344 2.121094 L 3.988281 1.914062 L 3.703125 2.121094 L 3.8125 1.78125 L 3.527344 1.570312 L 3.882812 1.570312 Z M 5.984375 1.230469 L 6.09375 1.570312 L 6.449219 1.570312 L 6.160156 1.78125 L 6.269531 2.121094 L 5.984375 1.914062 L 5.699219 2.121094 L 5.808594 1.78125 L 5.523438 1.570312 L 5.875 1.570312 Z M 7.980469 1.230469 L 8.089844 1.570312 L 8.441406 1.570312 L 8.15625 1.78125 L 8.265625 2.121094 L 7.980469 1.914062 L 7.695312 2.121094 L 7.804688 1.78125 L 7.519531 1.570312 L 7.875 1.570312 Z M 9.976562 1.230469 L 10.082031 1.570312 L 10.4375 1.570312 L 10.152344 1.78125 L 10.257812 2.121094 L 9.976562 1.914062 L 9.691406 2.121094 L 9.796875 1.78125 L 9.515625 1.570312 L 9.867188 1.570312 Z M 0.996094 2.089844 L 1.109375 2.4375 L 1.457031 2.4375 L 1.175781 2.648438 L 1.28125 2.988281 L 0.996094 2.773438 L 0.714844 2.988281 L 0.820312 2.644531 L 0.535156 2.433594 L 0.890625 2.433594 Z M 2.992188 2.089844 L 3.101562 2.433594 L 3.453125 2.433594 L 3.167969 2.644531 L 3.277344 2.984375 L 2.992188 2.773438 L 2.707031 2.984375 L 2.816406 2.640625 L 2.53125 2.429688 L 2.882812 2.429688 Z M 4.988281 2.089844 L 5.097656 2.433594 L 5.445312 2.433594 L 5.160156 2.644531 L 5.269531 2.984375 L 4.984375 2.773438 L 4.699219 2.984375 L 4.808594 2.640625 L 4.523438 2.429688 L 4.875 2.429688 Z M 6.984375 2.089844 L 7.089844 2.433594 L 7.445312 2.433594 L 7.160156 2.644531 L 7.269531 2.984375 L 6.984375 2.773438 L 6.695312 2.984375 L 6.808594 2.640625 L 6.519531 2.429688 L 6.871094 2.429688 Z M 8.976562 2.089844 L 9.085938 2.433594 L 9.4375 2.433594 L 9.15625 2.644531 L 9.261719 2.984375 L 8.976562 2.773438 L 8.691406 2.984375 L 8.800781 2.640625 L 8.519531 2.429688 L 8.867188 2.429688 Z M 10.972656 2.089844 L 11.082031 2.433594 L 11.433594 2.433594 L 11.148438 2.644531 L 11.257812 2.984375 L 10.972656 2.773438 L 10.6875 2.984375 L 10.796875 2.640625 L 10.511719 2.429688 L 10.863281 2.429688 Z M 1.996094 2.953125 L 2.105469 3.292969 L 2.457031 3.292969 L 2.171875 3.503906 L 2.28125 3.847656 L 1.996094 3.632812 L 1.710938 3.84375 L 1.816406 3.503906 L 1.535156 3.292969 L 1.886719 3.292969 Z M 3.988281 2.953125 L 4.101562 3.292969 L 4.453125 3.292969 L 4.164062 3.503906 L 4.277344 3.847656 L 3.988281 3.632812 L 3.703125 3.84375 L 3.8125 3.503906 L 3.527344 3.292969 L 3.882812 3.292969 Z M 5.984375 2.953125 L 6.09375 3.292969 L 6.449219 3.292969 L 6.160156 3.503906 L 6.269531 3.847656 L 5.984375 3.632812 L 5.699219 3.84375 L 5.808594 3.503906 L 5.523438 3.292969 L 5.875 3.292969 Z M 7.980469 2.953125 L 8.089844 3.292969 L 8.441406 3.292969 L 8.15625 3.503906 L 8.265625 3.847656 L 7.980469 3.632812 L 7.695312 3.84375 L 7.804688 3.503906 L 7.519531 3.292969 L 7.875 3.292969 Z M 9.976562 2.953125 L 10.082031 3.292969 L 10.4375 3.292969 L 10.152344 3.503906 L 10.257812 3.847656 L 9.976562 3.632812 L 9.691406 3.84375 L 9.796875 3.503906 L 9.515625 3.292969 L 9.867188 3.292969 Z M 0.996094 3.816406 L 1.109375 4.15625 L 1.457031 4.15625 L 1.175781 4.367188 L 1.28125 4.710938 L 0.996094 4.496094 L 0.714844 4.707031 L 0.820312 4.367188 L 0.535156 4.15625 L 0.890625 4.15625 Z M 2.992188 3.816406 L 3.101562 4.15625 L 3.453125 4.15625 L 3.167969 4.367188 L 3.277344 4.707031 L 2.992188 4.496094 L 2.707031 4.707031 L 2.816406 4.367188 L 2.53125 4.15625 L 2.882812 4.15625 Z M 4.988281 3.816406 L 5.097656 4.15625 L 5.445312 4.15625 L 5.160156 4.367188 L 5.269531 4.710938 L 4.984375 4.496094 L 4.699219 4.707031 L 4.808594 4.367188 L 4.523438 4.15625 L 4.875 4.15625 Z M 6.984375 3.816406 L 7.089844 4.15625 L 7.445312 4.15625 L 7.160156 4.367188 L 7.269531 4.710938 L 6.984375 4.496094 L 6.695312 4.707031 L 6.808594 4.367188 L 6.519531 4.15625 L 6.871094 4.15625 Z M 8.976562 3.816406 L 9.085938 4.15625 L 9.4375 4.15625 L 9.15625 4.367188 L 9.261719 4.710938 L 8.976562 4.496094 L 8.691406 4.707031 L 8.800781 4.367188 L 8.519531 4.15625 L 8.867188 4.15625 Z M 10.972656 3.816406 L 11.082031 4.15625 L 11.433594 4.15625 L 11.148438 4.367188 L 11.257812 4.710938 L 10.972656 4.496094 L 10.6875 4.707031 L 10.796875 4.367188 L 10.511719 4.15625 L 10.863281 4.15625 Z M 1.996094 4.679688 L 2.105469 5.019531 L 2.457031 5.019531 L 2.171875 5.226562 L 2.28125 5.570312 L 1.996094 5.355469 L 1.710938 5.570312 L 1.816406 5.226562 L 1.535156 5.015625 L 1.886719 5.015625 Z M 3.988281 4.679688 L 4.101562 5.019531 L 4.453125 5.019531 L 4.164062 5.226562 L 4.277344 5.570312 L 3.988281 5.355469 L 3.703125 5.570312 L 3.8125 5.226562 L 3.527344 5.015625 L 3.882812 5.015625 Z M 5.984375 4.679688 L 6.09375 5.019531 L 6.449219 5.019531 L 6.160156 5.226562 L 6.269531 5.570312 L 5.984375 5.355469 L 5.699219 5.570312 L 5.808594 5.226562 L 5.523438 5.015625 L 5.875 5.015625 Z M 7.980469 4.679688 L 8.089844 5.019531 L 8.441406 5.019531 L 8.15625 5.226562 L 8.265625 5.570312 L 7.980469 5.355469 L 7.695312 5.570312 L 7.804688 5.226562 L 7.519531 5.015625 L 7.875 5.015625 Z M 9.976562 4.679688 L 10.082031 5.019531 L 10.4375 5.019531 L 10.152344 5.226562 L 10.257812 5.570312 L 9.976562 5.355469 L 9.691406 5.570312 L 9.796875 5.226562 L 9.515625 5.015625 L 9.867188 5.015625 Z M 0.996094 5.539062 L 1.109375 5.882812 L 1.457031 5.882812 L 1.175781 6.089844 L 1.28125 6.429688 L 0.996094 6.21875 L 0.714844 6.429688 L 0.820312 6.085938 L 0.535156 5.878906 L 0.890625 5.878906 Z M 2.992188 5.539062 L 3.101562 5.882812 L 3.453125 5.882812 L 3.167969 6.089844 L 3.277344 6.429688 L 2.992188 6.21875 L 2.707031 6.429688 L 2.816406 6.085938 L 2.53125 5.878906 L 2.882812 5.878906 Z M 4.988281 5.539062 L 5.097656 5.882812 L 5.445312 5.882812 L 5.160156 6.089844 L 5.269531 6.429688 L 4.984375 6.21875 L 4.699219 6.429688 L 4.808594 6.085938 L 4.523438 5.878906 L 4.875 5.878906 Z M 6.984375 5.539062 L 7.089844 5.882812 L 7.445312 5.882812 L 7.160156 6.089844 L 7.269531 6.429688 L 6.984375 6.21875 L 6.695312 6.429688 L 6.808594 6.085938 L 6.519531 5.878906 L 6.871094 5.878906 Z M 8.976562 5.539062 L 9.085938 5.882812 L 9.4375 5.882812 L 9.15625 6.089844 L 9.261719 6.429688 L 8.976562 6.21875 L 8.691406 6.429688 L 8.800781 6.085938 L 8.519531 5.878906 L 8.867188 5.878906 Z M 10.972656 5.539062 L 11.082031 5.882812 L 11.433594 5.882812 L 11.148438 6.089844 L 11.257812 6.429688 L 10.972656 6.21875 L 10.6875 6.429688 L 10.796875 6.085938 L 10.511719 5.878906 L 10.863281 5.878906 Z M 1.996094 6.398438 L 2.105469 6.742188 L 2.457031 6.742188 L 2.171875 6.949219 L 2.28125 7.292969 L 1.996094 7.082031 L 1.710938 7.289062 L 1.816406 6.949219 L 1.535156 6.742188 L 1.886719 6.742188 Z M 3.988281 6.398438 L 4.101562 6.742188 L 4.453125 6.742188 L 4.164062 6.949219 L 4.277344 7.292969 L 3.988281 7.082031 L 3.703125 7.289062 L 3.8125 6.949219 L 3.527344 6.742188 L 3.882812 6.742188 Z M 5.984375 6.398438 L 6.09375 6.742188 L 6.449219 6.742188 L 6.160156 6.949219 L 6.269531 7.292969 L 5.984375 7.082031 L 5.699219 7.289062 L 5.808594 6.949219 L 5.523438 6.742188 L 5.875 6.742188 Z M 7.980469 6.398438 L 8.089844 6.742188 L 8.441406 6.742188 L 8.15625 6.949219 L 8.265625 7.292969 L 7.980469 7.082031 L 7.695312 7.289062 L 7.804688 6.949219 L 7.519531 6.742188 L 7.875 6.742188 Z M 9.976562 6.398438 L 10.082031 6.742188 L 10.4375 6.742188 L 10.152344 6.949219 L 10.257812 7.292969 L 9.976562 7.082031 L 9.691406 7.289062 L 9.796875 6.949219 L 9.515625 6.742188 L 9.867188 6.742188 Z M 0.996094 7.261719 L 1.109375 7.601562 L 1.457031 7.601562 L 1.175781 7.8125 L 1.28125 8.152344 L 0.996094 7.945312 L 0.714844 8.152344 L 0.820312 7.808594 L 0.535156 7.601562 L 0.890625 7.601562 Z M 2.992188 7.261719 L 3.101562 7.601562 L 3.453125 7.601562 L 3.167969 7.8125 L 3.277344 8.152344 L 2.992188 7.945312 L 2.707031 8.152344 L 2.816406 7.808594 L 2.53125 7.601562 L 2.882812 7.601562 Z M 4.988281 7.261719 L 5.097656 7.601562 L 5.445312 7.601562 L 5.167969 7.8125 L 5.277344 8.152344 L 4.988281 7.945312 L 4.707031 8.152344 L 4.8125 7.808594 L 4.527344 7.601562 L 4.882812 7.601562 Z M 6.984375 7.261719 L 7.089844 7.601562 L 7.445312 7.601562 L 7.160156 7.8125 L 7.269531 8.152344 L 6.984375 7.945312 L 6.695312 8.152344 L 6.808594 7.808594 L 6.519531 7.601562 L 6.871094 7.601562 Z M 8.976562 7.261719 L 9.085938 7.601562 L 9.4375 7.601562 L 9.15625 7.8125 L 9.261719 8.152344 L 8.976562 7.945312 L 8.691406 8.152344 L 8.800781 7.808594 L 8.519531 7.601562 L 8.867188 7.601562 Z M 10.972656 7.261719 L 11.082031 7.601562 L 11.433594 7.601562 L 11.148438 7.8125 L 11.257812 8.152344 L 10.972656 7.945312 L 10.6875 8.152344 L 10.796875 7.808594 L 10.511719 7.601562 L 10.863281 7.601562 Z M 10.972656 7.261719 "/>
</g>
</svg>
