<?xml version="1.0" encoding="UTF-8"?>
<svg xmlns="http://www.w3.org/2000/svg" xmlns:xlink="http://www.w3.org/1999/xlink" width="30px" height="30px" viewBox="0 0 30 22" version="1.1">
<g id="surface1">
<path style=" stroke:none;fill-rule:evenodd;fill:rgb(74.117647%,23.921569%,26.666667%);fill-opacity:1;" d="M 0 0 L 42.75 0 L 42.75 1.691406 L 0 1.691406 Z M 0 3.386719 L 42.75 3.386719 L 42.75 5.078125 L 0 5.078125 Z M 0 6.765625 L 42.75 6.765625 L 42.75 8.464844 L 0 8.464844 Z M 0 10.152344 L 42.75 10.152344 L 42.75 11.847656 L 0 11.847656 Z M 0 13.539062 L 42.75 13.539062 L 42.75 15.234375 L 0 15.234375 Z M 0 16.921875 L 42.75 16.921875 L 42.75 18.613281 L 0 18.613281 Z M 0 20.308594 L 42.75 20.308594 L 42.75 22 L 0 22 Z M 0 20.308594 "/>
<path style=" stroke:none;fill-rule:evenodd;fill:rgb(100%,100%,100%);fill-opacity:1;" d="M 0 1.691406 L 42.75 1.691406 L 42.75 3.386719 L 0 3.386719 Z M 0 5.078125 L 42.75 5.078125 L 42.75 6.765625 L 0 6.765625 Z M 0 8.460938 L 42.75 8.460938 L 42.75 10.152344 L 0 10.152344 Z M 0 11.847656 L 42.75 11.847656 L 42.75 13.539062 L 0 13.539062 Z M 0 15.234375 L 42.75 15.234375 L 42.75 16.925781 L 0 16.925781 Z M 0 18.613281 L 42.75 18.613281 L 42.75 20.308594 L 0 20.308594 Z M 0 18.613281 "/>
<path style=" stroke:none;fill-rule:evenodd;fill:rgb(9.803922%,18.431373%,36.470588%);fill-opacity:1;" d="M 0 0 L 17.097656 0 L 17.097656 11.847656 L 0 11.847656 Z M 0 0 "/>
<path style=" stroke:none;fill-rule:evenodd;fill:rgb(100%,100%,100%);fill-opacity:1;" d="M 1.421875 0.507812 L 1.582031 0.976562 L 2.082031 0.976562 L 1.679688 1.261719 L 1.832031 1.734375 L 1.425781 1.445312 L 1.019531 1.730469 L 1.171875 1.261719 L 0.765625 0.976562 L 1.273438 0.976562 Z M 4.277344 0.507812 L 4.429688 0.976562 L 4.933594 0.976562 L 4.527344 1.261719 L 4.679688 1.734375 L 4.277344 1.445312 L 3.867188 1.730469 L 4.019531 1.261719 L 3.617188 0.976562 L 4.117188 0.976562 Z M 7.125 0.507812 L 7.28125 0.976562 L 7.777344 0.976562 L 7.375 1.261719 L 7.527344 1.734375 L 7.117188 1.445312 L 6.714844 1.730469 L 6.867188 1.261719 L 6.460938 0.976562 L 6.964844 0.976562 Z M 9.976562 0.507812 L 10.128906 0.976562 L 10.632812 0.976562 L 10.226562 1.261719 L 10.382812 1.734375 L 9.976562 1.445312 L 9.566406 1.730469 L 9.726562 1.261719 L 9.316406 0.976562 L 9.816406 0.976562 Z M 12.824219 0.507812 L 12.980469 0.976562 L 13.484375 0.976562 L 13.078125 1.261719 L 13.230469 1.734375 L 12.824219 1.445312 L 12.417969 1.730469 L 12.574219 1.261719 L 12.167969 0.976562 L 12.667969 0.976562 Z M 15.675781 0.507812 L 15.828125 0.976562 L 16.335938 0.976562 L 15.925781 1.261719 L 16.085938 1.734375 L 15.675781 1.445312 L 15.265625 1.730469 L 15.425781 1.261719 L 15.015625 0.976562 L 15.523438 0.976562 Z M 2.851562 1.691406 L 3.007812 2.160156 L 3.511719 2.160156 L 3.101562 2.449219 L 3.25 2.917969 L 2.855469 2.628906 L 2.449219 2.917969 L 2.59375 2.449219 L 2.195312 2.160156 L 2.699219 2.160156 Z M 5.699219 1.691406 L 5.859375 2.160156 L 6.359375 2.160156 L 5.949219 2.449219 L 6.109375 2.917969 L 5.699219 2.628906 L 5.289062 2.917969 L 5.449219 2.449219 L 5.039062 2.160156 L 5.546875 2.160156 Z M 8.550781 1.691406 L 8.707031 2.160156 L 9.210938 2.160156 L 8.800781 2.449219 L 8.957031 2.917969 L 8.550781 2.628906 L 8.144531 2.917969 L 8.296875 2.449219 L 7.890625 2.160156 L 8.394531 2.160156 Z M 11.398438 1.691406 L 11.558594 2.160156 L 12.058594 2.160156 L 11.648438 2.449219 L 11.808594 2.917969 L 11.398438 2.628906 L 10.996094 2.917969 L 11.148438 2.449219 L 10.738281 2.160156 L 11.25 2.160156 Z M 14.25 1.691406 L 14.40625 2.160156 L 14.910156 2.160156 L 14.5 2.449219 L 14.65625 2.917969 L 14.25 2.628906 L 13.84375 2.917969 L 13.996094 2.449219 L 13.59375 2.160156 L 14.09375 2.160156 Z M 1.421875 2.875 L 1.582031 3.351562 L 2.082031 3.351562 L 1.679688 3.640625 L 1.832031 4.109375 L 1.425781 3.816406 L 1.019531 4.109375 L 1.171875 3.636719 L 0.765625 3.347656 L 1.273438 3.347656 Z M 4.277344 2.875 L 4.429688 3.347656 L 4.933594 3.347656 L 4.527344 3.636719 L 4.679688 4.105469 L 4.277344 3.8125 L 3.867188 4.105469 L 4.019531 3.632812 L 3.617188 3.34375 L 4.117188 3.34375 Z M 7.125 2.875 L 7.28125 3.347656 L 7.777344 3.347656 L 7.375 3.636719 L 7.527344 4.105469 L 7.117188 3.8125 L 6.714844 4.105469 L 6.867188 3.632812 L 6.460938 3.34375 L 6.964844 3.34375 Z M 9.976562 2.875 L 10.128906 3.347656 L 10.632812 3.347656 L 10.226562 3.636719 L 10.382812 4.105469 L 9.976562 3.8125 L 9.566406 4.105469 L 9.726562 3.632812 L 9.316406 3.34375 L 9.816406 3.34375 Z M 12.824219 2.875 L 12.980469 3.347656 L 13.484375 3.347656 L 13.078125 3.636719 L 13.230469 4.105469 L 12.824219 3.8125 L 12.417969 4.105469 L 12.574219 3.632812 L 12.167969 3.34375 L 12.667969 3.34375 Z M 15.675781 2.875 L 15.828125 3.347656 L 16.335938 3.347656 L 15.925781 3.636719 L 16.085938 4.105469 L 15.675781 3.8125 L 15.265625 4.105469 L 15.425781 3.632812 L 15.015625 3.34375 L 15.523438 3.34375 Z M 2.851562 4.0625 L 3.007812 4.527344 L 3.511719 4.527344 L 3.101562 4.816406 L 3.257812 5.289062 L 2.851562 4.996094 L 2.445312 5.285156 L 2.597656 4.816406 L 2.191406 4.527344 L 2.695312 4.527344 Z M 5.699219 4.0625 L 5.859375 4.527344 L 6.359375 4.527344 L 5.949219 4.816406 L 6.109375 5.289062 L 5.699219 4.996094 L 5.289062 5.285156 L 5.449219 4.816406 L 5.039062 4.527344 L 5.546875 4.527344 Z M 8.550781 4.0625 L 8.707031 4.527344 L 9.210938 4.527344 L 8.800781 4.816406 L 8.957031 5.289062 L 8.550781 4.996094 L 8.144531 5.285156 L 8.296875 4.816406 L 7.890625 4.527344 L 8.394531 4.527344 Z M 11.398438 4.0625 L 11.558594 4.527344 L 12.058594 4.527344 L 11.65625 4.816406 L 11.808594 5.289062 L 11.398438 4.996094 L 10.996094 5.285156 L 11.148438 4.816406 L 10.738281 4.527344 L 11.25 4.527344 Z M 14.25 4.0625 L 14.40625 4.527344 L 14.910156 4.527344 L 14.5 4.816406 L 14.65625 5.289062 L 14.25 4.996094 L 13.84375 5.285156 L 13.996094 4.816406 L 13.59375 4.527344 L 14.09375 4.527344 Z M 1.421875 5.246094 L 1.582031 5.714844 L 2.082031 5.714844 L 1.679688 6.003906 L 1.832031 6.476562 L 1.425781 6.183594 L 1.019531 6.472656 L 1.171875 6.003906 L 0.765625 5.714844 L 1.273438 5.714844 Z M 4.277344 5.246094 L 4.429688 5.714844 L 4.933594 5.714844 L 4.527344 6.003906 L 4.679688 6.472656 L 4.277344 6.183594 L 3.867188 6.472656 L 4.019531 6.003906 L 3.617188 5.714844 L 4.117188 5.714844 Z M 7.125 5.246094 L 7.28125 5.714844 L 7.777344 5.714844 L 7.375 6.003906 L 7.527344 6.476562 L 7.117188 6.183594 L 6.714844 6.472656 L 6.867188 6.003906 L 6.460938 5.714844 L 6.964844 5.714844 Z M 9.976562 5.246094 L 10.128906 5.714844 L 10.632812 5.714844 L 10.226562 6.003906 L 10.382812 6.476562 L 9.976562 6.183594 L 9.566406 6.472656 L 9.726562 6.003906 L 9.316406 5.714844 L 9.816406 5.714844 Z M 12.824219 5.246094 L 12.980469 5.714844 L 13.484375 5.714844 L 13.078125 6.003906 L 13.230469 6.476562 L 12.824219 6.183594 L 12.417969 6.472656 L 12.574219 6.003906 L 12.167969 5.714844 L 12.667969 5.714844 Z M 15.675781 5.246094 L 15.828125 5.714844 L 16.335938 5.714844 L 15.925781 6.003906 L 16.085938 6.476562 L 15.675781 6.183594 L 15.265625 6.472656 L 15.425781 6.003906 L 15.015625 5.714844 L 15.523438 5.714844 Z M 2.851562 6.433594 L 3.007812 6.902344 L 3.511719 6.902344 L 3.101562 7.1875 L 3.257812 7.65625 L 2.851562 7.363281 L 2.445312 7.65625 L 2.597656 7.183594 L 2.191406 6.898438 L 2.695312 6.898438 Z M 5.699219 6.433594 L 5.859375 6.902344 L 6.359375 6.902344 L 5.949219 7.1875 L 6.109375 7.65625 L 5.699219 7.363281 L 5.289062 7.65625 L 5.449219 7.183594 L 5.039062 6.898438 L 5.546875 6.898438 Z M 8.550781 6.433594 L 8.707031 6.902344 L 9.210938 6.902344 L 8.800781 7.1875 L 8.957031 7.65625 L 8.550781 7.363281 L 8.144531 7.65625 L 8.296875 7.183594 L 7.890625 6.898438 L 8.394531 6.898438 Z M 11.398438 6.433594 L 11.558594 6.902344 L 12.058594 6.902344 L 11.65625 7.1875 L 11.808594 7.65625 L 11.398438 7.363281 L 10.996094 7.65625 L 11.148438 7.183594 L 10.738281 6.898438 L 11.25 6.898438 Z M 14.25 6.433594 L 14.40625 6.902344 L 14.910156 6.902344 L 14.5 7.1875 L 14.65625 7.65625 L 14.25 7.363281 L 13.84375 7.65625 L 13.996094 7.183594 L 13.59375 6.898438 L 14.09375 6.898438 Z M 1.421875 7.613281 L 1.582031 8.085938 L 2.082031 8.085938 L 1.679688 8.375 L 1.832031 8.839844 L 1.425781 8.550781 L 1.019531 8.839844 L 1.171875 8.371094 L 0.765625 8.082031 L 1.273438 8.082031 Z M 4.277344 7.613281 L 4.429688 8.085938 L 4.933594 8.085938 L 4.527344 8.375 L 4.683594 8.839844 L 4.277344 8.550781 L 3.867188 8.839844 L 4.023438 8.371094 L 3.617188 8.082031 L 4.117188 8.082031 Z M 7.125 7.613281 L 7.28125 8.085938 L 7.777344 8.085938 L 7.375 8.375 L 7.527344 8.839844 L 7.117188 8.550781 L 6.714844 8.839844 L 6.867188 8.371094 L 6.460938 8.082031 L 6.964844 8.082031 Z M 9.976562 7.613281 L 10.128906 8.085938 L 10.632812 8.085938 L 10.226562 8.375 L 10.382812 8.839844 L 9.976562 8.550781 L 9.566406 8.839844 L 9.726562 8.371094 L 9.316406 8.082031 L 9.816406 8.082031 Z M 12.824219 7.613281 L 12.980469 8.085938 L 13.484375 8.085938 L 13.078125 8.375 L 13.230469 8.839844 L 12.824219 8.550781 L 12.417969 8.839844 L 12.574219 8.371094 L 12.167969 8.082031 L 12.667969 8.082031 Z M 15.675781 7.613281 L 15.828125 8.085938 L 16.335938 8.085938 L 15.925781 8.375 L 16.085938 8.839844 L 15.675781 8.550781 L 15.265625 8.839844 L 15.425781 8.371094 L 15.015625 8.082031 L 15.523438 8.082031 Z M 2.851562 8.800781 L 3.007812 9.269531 L 3.511719 9.269531 L 3.101562 9.554688 L 3.257812 10.027344 L 2.851562 9.738281 L 2.445312 10.023438 L 2.597656 9.554688 L 2.191406 9.269531 L 2.695312 9.269531 Z M 5.699219 8.800781 L 5.859375 9.269531 L 6.359375 9.269531 L 5.949219 9.554688 L 6.109375 10.027344 L 5.699219 9.738281 L 5.289062 10.023438 L 5.449219 9.554688 L 5.039062 9.269531 L 5.546875 9.269531 Z M 8.550781 8.800781 L 8.707031 9.269531 L 9.210938 9.269531 L 8.800781 9.554688 L 8.957031 10.027344 L 8.550781 9.738281 L 8.144531 10.023438 L 8.296875 9.554688 L 7.890625 9.269531 L 8.394531 9.269531 Z M 11.398438 8.800781 L 11.558594 9.269531 L 12.058594 9.269531 L 11.65625 9.554688 L 11.808594 10.027344 L 11.398438 9.738281 L 10.996094 10.023438 L 11.148438 9.554688 L 10.738281 9.269531 L 11.25 9.269531 Z M 14.25 8.800781 L 14.40625 9.269531 L 14.910156 9.269531 L 14.5 9.554688 L 14.65625 10.027344 L 14.25 9.738281 L 13.84375 10.023438 L 13.996094 9.554688 L 13.59375 9.269531 L 14.09375 9.269531 Z M 1.421875 9.984375 L 1.582031 10.453125 L 2.082031 10.453125 L 1.679688 10.742188 L 1.832031 11.210938 L 1.425781 10.921875 L 1.019531 11.210938 L 1.171875 10.738281 L 0.765625 10.449219 L 1.273438 10.449219 Z M 4.277344 9.984375 L 4.429688 10.453125 L 4.933594 10.453125 L 4.527344 10.742188 L 4.683594 11.210938 L 4.277344 10.921875 L 3.867188 11.210938 L 4.023438 10.738281 L 3.617188 10.449219 L 4.117188 10.449219 Z M 7.125 9.984375 L 7.28125 10.453125 L 7.777344 10.453125 L 7.382812 10.742188 L 7.535156 11.210938 L 7.128906 10.921875 L 6.722656 11.210938 L 6.878906 10.738281 L 6.46875 10.449219 L 6.972656 10.449219 Z M 9.976562 9.984375 L 10.128906 10.453125 L 10.632812 10.453125 L 10.226562 10.742188 L 10.382812 11.210938 L 9.976562 10.921875 L 9.566406 11.210938 L 9.726562 10.738281 L 9.316406 10.449219 L 9.816406 10.449219 Z M 12.824219 9.984375 L 12.980469 10.453125 L 13.484375 10.453125 L 13.078125 10.742188 L 13.230469 11.210938 L 12.824219 10.921875 L 12.417969 11.210938 L 12.574219 10.738281 L 12.167969 10.449219 L 12.667969 10.449219 Z M 15.675781 9.984375 L 15.828125 10.453125 L 16.335938 10.453125 L 15.925781 10.742188 L 16.085938 11.210938 L 15.675781 10.921875 L 15.265625 11.210938 L 15.425781 10.738281 L 15.015625 10.449219 L 15.523438 10.449219 Z M 15.675781 9.984375 "/>
</g>
</svg>
